<svg width="100" height="200" viewBox="0 0 1575 846" fill="none" xmlns="http://www.w3.org/2000/svg">
<path d="M97.2 26.8C78.2667 34 63.6 45.2 53.2 60.4C42.8 75.3333 37.6 93.7333 37.6 115.6C37.6 125.467 38.5333 132.4 40.4 136.4C42.2667 140.133 43.2 142.267 43.2 142.8C28.8 142.8 18 139.867 10.8 134C3.86667 127.867 0.4 117.867 0.4 104C0.4 86.9333 7.33333 70.4 21.2 54.4C35.3333 38.1333 53.3333 25.0667 75.2 15.2C97.0667 5.06665 118.933 -2.38419e-05 140.8 -2.38419e-05C144.533 -2.38419e-05 149.867 0.266647 156.8 0.79999L160.4 246.8L244.4 1.99997H295.2L298.8 246.8L382.8 1.99997H410.8L299.6 300H242L237.2 96.4L161.2 300H103.6L97.2 26.8ZM478.366 28.4C460.499 35.6 446.632 46.6667 436.766 61.6C427.166 76.2667 422.366 94.2667 422.366 115.6C422.366 125.467 423.299 132.4 425.166 136.4C427.032 140.133 427.966 142.267 427.966 142.8C413.566 142.8 402.766 139.867 395.566 134C388.632 127.867 385.166 117.867 385.166 104C385.166 86.9333 392.099 70.4 405.966 54.4C420.099 38.1333 438.099 25.0667 459.966 15.2C481.832 5.06665 503.699 -2.38419e-05 525.566 -2.38419e-05C529.299 -2.38419e-05 534.632 0.266647 541.566 0.79999L477.966 300H420.366L478.366 28.4ZM756.366 400C744.366 400 732.499 396.533 720.766 389.6C709.299 382.933 694.632 372.533 676.766 358.4C663.432 347.733 651.966 339.067 642.366 332.4C633.032 326 622.766 320.533 611.566 316C600.632 311.467 589.432 309.2 577.966 309.2C573.966 309.2 570.899 309.333 568.766 309.6L628.366 32.4C610.499 39.6 596.632 50.6667 586.766 65.6C577.166 80.2667 572.366 98.2667 572.366 119.6C572.366 129.467 573.299 136.4 575.166 140.4C577.032 144.133 577.966 146.267 577.966 146.8C563.566 146.8 552.766 143.867 545.566 138C538.632 131.867 535.166 121.867 535.166 108C535.166 90.9333 542.099 74.4 555.966 58.4C570.099 42.1333 588.099 29.0667 609.966 19.2C631.832 9.06666 653.699 4 675.566 4C679.299 4 684.632 4.26666 691.566 4.79999L629.966 292C637.432 293.867 645.032 296.533 652.766 300C660.766 303.733 670.366 308.667 681.566 314.8C698.899 324.133 713.699 331.2 725.966 336C738.232 341.067 751.032 343.6 764.366 343.6C776.366 343.6 787.566 341.467 797.966 337.2C795.832 356.667 791.032 372 783.566 383.2C776.366 394.4 767.299 400 756.366 400ZM907.928 400C895.928 400 884.061 396.533 872.328 389.6C860.861 382.933 846.195 372.533 828.328 358.4C814.995 347.733 803.528 339.067 793.928 332.4C784.595 326 774.328 320.533 763.128 316C752.195 311.467 740.995 309.2 729.528 309.2C725.528 309.2 722.461 309.333 720.328 309.6L779.928 32.4C762.061 39.6 748.195 50.6667 738.328 65.6C728.728 80.2667 723.928 98.2667 723.928 119.6C723.928 129.467 724.861 136.4 726.728 140.4C728.595 144.133 729.528 146.267 729.528 146.8C715.128 146.8 704.328 143.867 697.128 138C690.195 131.867 686.728 121.867 686.728 108C686.728 90.9333 693.661 74.4 707.528 58.4C721.661 42.1333 739.661 29.0667 761.528 19.2C783.395 9.06666 805.261 4 827.128 4C830.861 4 836.195 4.26666 843.128 4.79999L781.528 292C788.995 293.867 796.595 296.533 804.328 300C812.328 303.733 821.928 308.667 833.128 314.8C850.461 324.133 865.261 331.2 877.528 336C889.795 341.067 902.595 343.6 915.928 343.6C927.928 343.6 939.128 341.467 949.528 337.2C947.395 356.667 942.595 372 935.128 383.2C927.928 394.4 918.861 400 907.928 400ZM931.491 28.4C913.624 35.6 899.757 46.6667 889.891 61.6C880.291 76.2667 875.491 94.2667 875.491 115.6C875.491 125.467 876.424 132.4 878.291 136.4C880.157 140.133 881.091 142.267 881.091 142.8C866.691 142.8 855.891 139.867 848.691 134C841.757 127.867 838.291 117.867 838.291 104C838.291 86.9333 845.224 70.4 859.091 54.4C873.224 38.1333 891.224 25.0667 913.091 15.2C934.957 5.06665 956.824 -2.38419e-05 978.691 -2.38419e-05C982.424 -2.38419e-05 987.757 0.266647 994.691 0.79999L931.091 300H873.491L931.491 28.4ZM1073.09 345.6C1063.22 345.6 1054.56 344.8 1047.09 343.2C1039.62 341.6 1033.09 337.733 1027.49 331.6C1022.16 325.467 1019.49 316 1019.49 303.2C1019.49 285.333 1024.82 261.333 1035.49 231.2C1046.42 201.067 1060.69 170.8 1078.29 140.4C1064.96 141.2 1054.42 143.2 1046.69 146.4C1038.96 149.6 1033.89 154.533 1031.49 161.2C1032.56 161.2 1033.62 162.533 1034.69 165.2C1036.02 167.867 1036.69 170.667 1036.69 173.6C1036.69 178.4 1034.56 182.267 1030.29 185.2C1026.02 187.867 1020.69 189.2 1014.29 189.2C1006.82 189.2 1000.82 187.2 996.291 183.2C991.757 179.2 989.491 173.467 989.491 166C989.491 156.933 992.957 148.667 999.891 141.2C1007.09 133.733 1016.96 127.867 1029.49 123.6C1042.02 119.067 1055.89 116.8 1071.09 116.8C1076.69 116.8 1083.62 117.2 1091.89 118C1113.76 83.3333 1136.82 55.0666 1161.09 33.2C1185.62 11.0666 1208.96 -2.38419e-05 1231.09 -2.38419e-05C1243.89 -2.38419e-05 1254.42 1.86664 1262.69 5.59998L1199.89 300H1142.29L1173.09 154.8C1163.22 150.267 1154.16 146.933 1145.89 144.8C1137.62 142.667 1128.82 141.2 1119.49 140.4C1104.29 173.2 1091.76 206.8 1081.89 241.2C1072.29 275.333 1067.49 302.667 1067.49 323.2C1067.49 333.333 1069.36 340.8 1073.09 345.6ZM1199.89 28.4C1188.42 34.5333 1176.42 46 1163.89 62.8C1151.62 79.3333 1139.62 99.4667 1127.89 123.2C1147.09 126.933 1163.36 131.6 1176.69 137.2L1199.89 28.4ZM1381.48 25.2C1361.21 31.8666 1345.48 42.9333 1334.28 58.4C1323.34 73.6 1317.88 92.5333 1317.88 115.2C1317.88 125.333 1318.81 132.267 1320.68 136C1322.54 139.733 1323.48 142 1323.48 142.8C1294.94 142.8 1280.68 130.667 1280.68 106.4C1280.68 89.8667 1286.94 73.3333 1299.48 56.8C1312.28 40 1328.54 26.4 1348.28 16C1368.28 5.33331 1388.14 -2.38419e-05 1407.88 -2.38419e-05C1417.74 -2.38419e-05 1427.88 1.86664 1438.28 5.59998L1429.08 216.4L1517.08 5.59998H1574.68L1532.68 300H1475.08L1500.68 120.4L1425.48 300H1370.68L1378.68 119.6L1311.88 300H1279.88L1381.48 25.2ZM201.6 845.2C190.667 845.2 181.867 842.933 175.2 838.4C168.533 834.133 163.467 828.667 160 822C156.8 815.6 153.467 807.2 150 796.8C138 800.533 125.6 802.4 112.8 802.4C90.4 802.4 72.8 796 60 783.2C47.4667 770.4 41.2 750 41.2 722C41.2 698.267 45.4667 671.6 54 642C62.5333 612.4 74.9333 587.067 91.2 566C107.733 544.933 127.2 534.4 149.6 534.4C157.6 534.4 164.533 535.467 170.4 537.6C158.667 544.533 147.333 558.8 136.4 580.4C125.733 602 117.067 626.133 110.4 652.8C103.733 679.467 100.4 703.067 100.4 723.6V730.8C100.4 735.333 100.667 738.667 101.2 740.8C110.8 738.4 119.067 737.2 126 737.2C138 737.2 148.667 740.8 158 748C171.6 730.4 183.2 706.533 192.8 676.4C202.4 646 207.2 616.667 207.2 588.4C207.2 571.867 205.733 558.667 202.8 548.8C200.133 538.667 195.067 531.067 187.6 526C180.133 520.933 169.6 518.4 156 518.4C135.467 518.4 116.4 522.667 98.8 531.2C81.2 539.467 67.0667 551.467 56.4 567.2C46 582.667 40.8 600.667 40.8 621.2C40.8 628.4 41.4667 633.733 42.8 637.2C44.1333 640.4 44.8 642.267 44.8 642.8C31.4667 642.8 21.3333 640.133 14.4 634.8C7.73333 629.467 4.4 620.933 4.4 609.2C4.4 590.8 11.8667 573.2 26.8 556.4C42 539.6 62 526 86.8 515.6C111.867 505.2 138.133 500 165.6 500C198.933 500 223.067 509.067 238 527.2C252.933 545.333 260.4 570.4 260.4 602.4C260.4 622.133 257.6 643.333 252 666C246.4 688.4 237.867 709.733 226.4 730C214.933 750.267 200.8 766.667 184 779.2C190.933 789.6 198.133 797.6 205.6 803.2C213.067 808.8 222.533 811.6 234 811.6C235.6 811.6 238.533 811.333 242.8 810.8C237.733 823.867 231.867 832.8 225.2 837.6C218.8 842.667 210.933 845.2 201.6 845.2ZM123.6 770C129.467 770 134.533 768.533 138.8 765.6C133.467 756.533 125.867 752 116 752C111.733 752 107.867 752.533 104.4 753.6C108.133 764.533 114.533 770 123.6 770ZM359.616 528.4C341.749 535.6 327.882 546.667 318.016 561.6C308.416 576.267 303.616 594.267 303.616 615.6C303.616 625.467 304.549 632.4 306.416 636.4C308.282 640.133 309.216 642.267 309.216 642.8C294.816 642.8 284.016 639.867 276.816 634C269.882 627.867 266.416 617.867 266.416 604C266.416 586.933 273.349 570.4 287.216 554.4C301.349 538.133 319.349 525.067 341.216 515.2C363.082 505.067 384.949 500 406.816 500C410.549 500 415.882 500.267 422.816 500.8L359.216 800H301.616L359.616 528.4ZM501.216 845.6C491.349 845.6 482.682 844.8 475.216 843.2C467.749 841.6 461.216 837.733 455.616 831.6C450.282 825.467 447.616 816 447.616 803.2C447.616 785.333 452.949 761.333 463.616 731.2C474.549 701.067 488.816 670.8 506.416 640.4C493.082 641.2 482.549 643.2 474.816 646.4C467.082 649.6 462.016 654.533 459.616 661.2C460.682 661.2 461.749 662.533 462.816 665.2C464.149 667.867 464.816 670.667 464.816 673.6C464.816 678.4 462.682 682.267 458.416 685.2C454.149 687.867 448.816 689.2 442.416 689.2C434.949 689.2 428.949 687.2 424.416 683.2C419.882 679.2 417.616 673.467 417.616 666C417.616 656.933 421.082 648.667 428.016 641.2C435.216 633.733 445.082 627.867 457.616 623.6C470.149 619.067 484.016 616.8 499.216 616.8C504.816 616.8 511.749 617.2 520.016 618C541.882 583.333 564.949 555.067 589.216 533.2C613.749 511.067 637.082 500 659.216 500C672.016 500 682.549 501.867 690.816 505.6L628.016 800H570.416L601.216 654.8C591.349 650.267 582.282 646.933 574.016 644.8C565.749 642.667 556.949 641.2 547.616 640.4C532.416 673.2 519.882 706.8 510.016 741.2C500.416 775.333 495.616 802.667 495.616 823.2C495.616 833.333 497.482 840.8 501.216 845.6ZM628.016 528.4C616.549 534.533 604.549 546 592.016 562.8C579.749 579.333 567.749 599.467 556.016 623.2C575.216 626.933 591.482 631.6 604.816 637.2L628.016 528.4ZM778.403 526C760.27 532.4 746.403 542.533 736.803 556.4C727.47 570 722.803 586.533 722.803 606C722.803 614.533 723.736 622.4 725.603 629.6C727.47 636.533 730.136 642.267 733.603 646.8C716.536 646.8 703.87 643.333 695.603 636.4C687.603 629.2 683.603 618.267 683.603 603.6C683.603 584.933 689.07 567.6 700.003 551.6C710.936 535.333 725.736 522.4 744.403 512.8C763.07 503.2 783.336 498.4 805.203 498.4C811.336 498.4 816.67 498.8 821.203 499.6C825.736 500.4 830.936 501.867 836.803 504L884.803 718L929.603 500.8H968.403L903.203 800H848.003L801.603 601.6L756.003 800H718.003L778.403 526Z" fill="white"/>
<path d="M97.2 26.8L98.1997 26.7766L98.1666 25.3625L96.8446 25.8653L97.2 26.8ZM53.2 60.4L54.0206 60.9715L54.0253 60.9647L53.2 60.4ZM40.4 136.4L39.4938 136.823L39.4995 136.835L39.5056 136.847L40.4 136.4ZM43.2 142.8V143.8H44.2V142.8H43.2ZM10.8 134L10.1374 134.749L10.1526 134.762L10.1683 134.775L10.8 134ZM21.2 54.4L20.4451 53.7441L20.4443 53.7451L21.2 54.4ZM75.2 15.2L75.6113 16.1115L75.6205 16.1073L75.2 15.2ZM156.8 0.79999L157.8 0.785357L157.787 -0.127076L156.877 -0.197065L156.8 0.79999ZM160.4 246.8L159.4 246.815L161.346 247.125L160.4 246.8ZM244.4 1.99997V0.999974H243.686L243.454 1.67541L244.4 1.99997ZM295.2 1.99997L296.2 1.98527L296.185 0.999974H295.2V1.99997ZM298.8 246.8L297.8 246.815L299.746 247.125L298.8 246.8ZM382.8 1.99997V0.999974H382.086L381.854 1.67541L382.8 1.99997ZM410.8 1.99997L411.737 2.34958L412.241 0.999974H410.8V1.99997ZM299.6 300V301H300.294L300.537 300.35L299.6 300ZM242 300L241 300.024L241.023 301H242V300ZM237.2 96.4L238.2 96.3764L236.263 96.0503L237.2 96.4ZM161.2 300V301H161.894L162.137 300.35L161.2 300ZM103.6 300L102.6 300.023L102.623 301H103.6V300ZM96.8446 25.8653C77.7404 33.1302 62.9014 44.4502 52.3747 59.8353L54.0253 60.9647C64.2986 45.9498 78.7929 34.8697 97.5555 27.7347L96.8446 25.8653ZM52.3794 59.8285C41.8407 74.961 36.6 93.571 36.6 115.6H38.6C38.6 93.8957 43.7593 75.7057 54.0206 60.9715L52.3794 59.8285ZM36.6 115.6C36.6 125.476 37.5259 132.606 39.4938 136.823L41.3062 135.977C39.5408 132.194 38.6 125.458 38.6 115.6H36.6ZM39.5056 136.847C40.4362 138.709 41.1274 140.157 41.5838 141.201C41.8126 141.724 41.9764 142.131 42.0811 142.43C42.2026 142.777 42.2 142.859 42.2 142.8H44.2C44.2 142.474 44.0808 142.089 43.9689 141.77C43.8403 141.402 43.654 140.943 43.4162 140.399C42.9393 139.309 42.2304 137.825 41.2944 135.953L39.5056 136.847ZM43.2 141.8C28.9101 141.8 18.3783 138.885 11.4317 133.225L10.1683 134.775C17.6217 140.848 28.6899 143.8 43.2 143.8V141.8ZM11.4626 133.251C4.83204 127.386 1.4 117.724 1.4 104H-0.6C-0.6 118.009 2.9013 128.348 10.1374 134.749L11.4626 133.251ZM1.4 104C1.4 87.2278 8.20729 70.9185 21.9557 55.0549L20.4443 53.7451C6.45938 69.8815 -0.6 86.6388 -0.6 104H1.4ZM21.9549 55.0559C35.9832 38.91 53.8613 25.9255 75.6113 16.1115L74.7887 14.2885C52.8054 24.2078 34.6834 37.3567 20.4451 53.7441L21.9549 55.0559ZM75.6205 16.1073C97.369 6.02872 119.093 0.999976 140.8 0.999976V-1.00002C118.774 -1.00002 96.7644 4.10458 74.7795 14.2927L75.6205 16.1073ZM140.8 0.999976C144.495 0.999976 149.798 1.2643 156.723 1.79704L156.877 -0.197065C149.936 -0.731007 144.572 -1.00002 140.8 -1.00002V0.999976ZM155.8 0.814622L159.4 246.815L161.4 246.785L157.8 0.785357L155.8 0.814622ZM161.346 247.125L245.346 2.32454L243.454 1.67541L159.454 246.475L161.346 247.125ZM244.4 2.99997H295.2V0.999974H244.4V2.99997ZM294.2 2.01468L297.8 246.815L299.8 246.785L296.2 1.98527L294.2 2.01468ZM299.746 247.125L383.746 2.32454L381.854 1.67541L297.854 246.475L299.746 247.125ZM382.8 2.99997H410.8V0.999974H382.8V2.99997ZM409.863 1.65037L298.663 299.65L300.537 300.35L411.737 2.34958L409.863 1.65037ZM299.6 299H242V301H299.6V299ZM243 299.976L238.2 96.3764L236.2 96.4236L241 300.024L243 299.976ZM236.263 96.0503L160.263 299.65L162.137 300.35L238.137 96.7497L236.263 96.0503ZM161.2 299H103.6V301H161.2V299ZM104.6 299.977L98.1997 26.7766L96.2003 26.8234L102.6 300.023L104.6 299.977ZM478.366 28.4L479.344 28.6088L479.736 26.7695L477.992 27.4725L478.366 28.4ZM436.766 61.6L435.931 61.0487L435.929 61.0523L436.766 61.6ZM425.166 136.4L424.259 136.823L424.265 136.835L424.271 136.847L425.166 136.4ZM427.966 142.8V143.8H428.966V142.8H427.966ZM395.566 134L394.903 134.749L394.918 134.762L394.934 134.775L395.566 134ZM405.966 54.4L405.211 53.7441L405.21 53.7451L405.966 54.4ZM459.966 15.2L460.377 16.1115L460.386 16.1073L459.966 15.2ZM541.566 0.79999L542.544 1.00791L542.781 -0.109451L541.642 -0.197065L541.566 0.79999ZM477.966 300V301H478.775L478.944 300.208L477.966 300ZM420.366 300L419.388 299.791L419.13 301H420.366V300ZM477.992 27.4725C459.952 34.7422 445.918 45.9331 435.931 61.0487L437.6 62.1513C447.346 47.4002 461.046 36.4578 478.739 29.3275L477.992 27.4725ZM435.929 61.0523C426.201 75.9141 421.366 94.1147 421.366 115.6H423.366C423.366 94.4186 428.13 76.6192 437.602 62.1477L435.929 61.0523ZM421.366 115.6C421.366 125.476 422.292 132.606 424.259 136.823L426.072 135.977C424.306 132.194 423.366 125.458 423.366 115.6H421.366ZM424.271 136.847C425.202 138.709 425.893 140.157 426.349 141.201C426.578 141.724 426.742 142.131 426.847 142.43C426.968 142.777 426.966 142.859 426.966 142.8H428.966C428.966 142.474 428.846 142.089 428.734 141.77C428.606 141.402 428.42 140.943 428.182 140.399C427.705 139.309 426.996 137.825 426.06 135.953L424.271 136.847ZM427.966 141.8C413.676 141.8 403.144 138.885 396.197 133.225L394.934 134.775C402.387 140.848 413.456 143.8 427.966 143.8V141.8ZM396.228 133.251C389.598 127.386 386.166 117.724 386.166 104H384.166C384.166 118.009 387.667 128.348 394.903 134.749L396.228 133.251ZM386.166 104C386.166 87.2278 392.973 70.9185 406.721 55.0549L405.21 53.7451C391.225 69.8815 384.166 86.6388 384.166 104H386.166ZM406.72 55.0559C420.749 38.91 438.627 25.9255 460.377 16.1115L459.554 14.2885C437.571 24.2078 419.449 37.3567 405.211 53.7441L406.72 55.0559ZM460.386 16.1073C482.135 6.02872 503.858 0.999976 525.566 0.999976V-1.00002C503.539 -1.00002 481.53 4.10458 459.545 14.2927L460.386 16.1073ZM525.566 0.999976C529.26 0.999976 534.563 1.2643 541.489 1.79704L541.642 -0.197065C534.701 -0.731007 529.338 -1.00002 525.566 -1.00002V0.999976ZM540.587 0.592068L476.987 299.792L478.944 300.208L542.544 1.00791L540.587 0.592068ZM477.966 299H420.366V301H477.966V299ZM421.344 300.209L479.344 28.6088L477.388 28.1912L419.388 299.791L421.344 300.209ZM720.766 389.6L721.274 388.739L721.268 388.735L720.766 389.6ZM676.766 358.4L676.141 359.181L676.145 359.184L676.766 358.4ZM642.366 332.4L642.936 331.579L642.931 331.575L642.366 332.4ZM611.566 316L611.183 316.924L611.19 316.927L611.566 316ZM568.766 309.6L567.788 309.39L567.492 310.767L568.89 310.592L568.766 309.6ZM628.366 32.4L629.343 32.6102L629.739 30.7683L627.992 31.4725L628.366 32.4ZM586.766 65.6L585.931 65.0487L585.929 65.0523L586.766 65.6ZM575.166 140.4L574.259 140.823L574.265 140.835L574.271 140.847L575.166 140.4ZM577.966 146.8V147.8H578.966V146.8H577.966ZM545.566 138L544.903 138.749L544.918 138.762L544.934 138.775L545.566 138ZM555.966 58.4L555.211 57.7441L555.21 57.7451L555.966 58.4ZM609.966 19.2L610.377 20.1115L610.386 20.1073L609.966 19.2ZM691.566 4.79999L692.543 5.0097L692.783 3.89071L691.642 3.80293L691.566 4.79999ZM629.966 292L628.988 291.79L628.785 292.736L629.723 292.97L629.966 292ZM652.766 300L653.189 299.094L653.182 299.091L653.175 299.087L652.766 300ZM681.566 314.8L681.085 315.677L681.092 315.68L681.566 314.8ZM725.966 336L726.347 335.076L726.339 335.072L726.33 335.069L725.966 336ZM797.966 337.2L798.96 337.309L799.143 335.636L797.586 336.275L797.966 337.2ZM783.566 383.2L782.734 382.645L782.729 382.652L782.724 382.659L783.566 383.2ZM756.366 399C744.568 399 732.875 395.594 721.274 388.739L720.257 390.461C732.123 397.473 744.163 401 756.366 401V399ZM721.268 388.735C709.862 382.104 695.238 371.737 677.386 357.616L676.145 359.184C694.027 373.329 708.736 383.763 720.263 390.465L721.268 388.735ZM677.39 357.619C664.047 346.944 652.561 338.263 642.936 331.579L641.795 333.221C651.37 339.871 662.818 348.523 676.141 359.181L677.39 357.619ZM642.931 331.575C633.534 325.132 623.203 319.632 611.941 315.073L611.19 316.927C622.328 321.435 632.53 326.868 641.8 333.225L642.931 331.575ZM611.949 315.076C600.898 310.494 589.568 308.2 577.966 308.2V310.2C589.297 310.2 600.367 312.439 611.183 316.924L611.949 315.076ZM577.966 308.2C573.953 308.2 570.837 308.333 568.642 308.608L568.89 310.592C570.961 310.333 573.978 310.2 577.966 310.2V308.2ZM569.743 309.81L629.343 32.6102L627.388 32.1898L567.788 309.39L569.743 309.81ZM627.992 31.4725C609.952 38.7422 595.918 49.9331 585.931 65.0487L587.6 66.1512C597.346 51.4002 611.046 40.4578 628.739 33.3275L627.992 31.4725ZM585.929 65.0523C576.201 79.9141 571.366 98.1147 571.366 119.6H573.366C573.366 98.4186 578.13 80.6192 587.602 66.1476L585.929 65.0523ZM571.366 119.6C571.366 129.476 572.292 136.606 574.259 140.823L576.072 139.977C574.306 136.194 573.366 129.458 573.366 119.6H571.366ZM574.271 140.847C575.202 142.709 575.893 144.157 576.349 145.201C576.578 145.724 576.742 146.131 576.847 146.43C576.968 146.777 576.966 146.859 576.966 146.8H578.966C578.966 146.474 578.846 146.089 578.734 145.77C578.606 145.402 578.42 144.943 578.182 144.399C577.705 143.309 576.996 141.825 576.06 139.953L574.271 140.847ZM577.966 145.8C563.676 145.8 553.144 142.885 546.197 137.225L544.934 138.775C552.387 144.848 563.456 147.8 577.966 147.8V145.8ZM546.228 137.251C539.598 131.386 536.166 121.724 536.166 108H534.166C534.166 122.009 537.667 132.348 544.903 138.749L546.228 137.251ZM536.166 108C536.166 91.2278 542.973 74.9185 556.721 59.0549L555.21 57.7451C541.225 73.8815 534.166 90.6388 534.166 108H536.166ZM556.72 59.0559C570.749 42.91 588.627 29.9255 610.377 20.1115L609.554 18.2885C587.571 28.2078 569.449 41.3566 555.211 57.7441L556.72 59.0559ZM610.386 20.1073C632.135 10.0287 653.858 5 675.566 5V3C653.539 3 631.53 8.10459 609.545 18.2927L610.386 20.1073ZM675.566 5C679.26 5 684.563 5.26431 691.489 5.79704L691.642 3.80293C684.701 3.269 679.338 3 675.566 3V5ZM690.588 4.59027L628.988 291.79L630.943 292.21L692.543 5.0097L690.588 4.59027ZM629.723 292.97C637.127 294.821 644.672 297.468 652.357 300.913L653.175 299.087C645.393 295.599 637.737 292.912 630.208 291.03L629.723 292.97ZM652.343 300.906C660.317 304.627 669.897 309.55 681.085 315.677L682.046 313.923C670.835 307.783 661.214 302.839 653.189 299.094L652.343 300.906ZM681.092 315.68C698.445 325.025 713.284 332.111 725.601 336.931L726.33 335.069C714.114 330.289 699.353 323.242 682.04 313.92L681.092 315.68ZM725.584 336.924C737.972 342.041 750.902 344.6 764.366 344.6V342.6C751.163 342.6 738.492 340.092 726.347 335.076L725.584 336.924ZM764.366 344.6C776.487 344.6 787.817 342.445 798.345 338.125L797.586 336.275C787.314 340.489 776.244 342.6 764.366 342.6V344.6ZM796.972 337.091C794.848 356.466 790.08 371.626 782.734 382.645L784.398 383.755C791.985 372.374 796.816 356.868 798.96 337.309L796.972 337.091ZM782.724 382.659C775.662 393.645 766.881 399 756.366 399V401C767.717 401 777.069 395.155 784.407 383.741L782.724 382.659ZM872.328 389.6L872.837 388.739L872.831 388.735L872.328 389.6ZM828.328 358.4L827.703 359.181L827.708 359.184L828.328 358.4ZM793.928 332.4L794.499 331.579L794.494 331.575L793.928 332.4ZM763.128 316L762.745 316.924L762.753 316.927L763.128 316ZM720.328 309.6L719.35 309.39L719.054 310.767L720.452 310.592L720.328 309.6ZM779.928 32.4L780.906 32.6102L781.302 30.7683L779.554 31.4725L779.928 32.4ZM738.328 65.6L737.494 65.0487L737.491 65.0523L738.328 65.6ZM726.728 140.4L725.822 140.823L725.828 140.835L725.834 140.847L726.728 140.4ZM729.528 146.8V147.8H730.528V146.8H729.528ZM697.128 138L696.466 138.749L696.481 138.762L696.496 138.775L697.128 138ZM707.528 58.4L706.773 57.7441L706.772 57.7451L707.528 58.4ZM761.528 19.2L761.939 20.1115L761.949 20.1073L761.528 19.2ZM843.128 4.79999L844.106 5.0097L844.346 3.89071L843.205 3.80293L843.128 4.79999ZM781.528 292L780.55 291.79L780.348 292.736L781.286 292.97L781.528 292ZM804.328 300L804.751 299.094L804.744 299.091L804.737 299.087L804.328 300ZM833.128 314.8L832.648 315.677L832.654 315.68L833.128 314.8ZM877.528 336L877.91 335.076L877.901 335.072L877.893 335.069L877.528 336ZM949.528 337.2L950.522 337.309L950.706 335.636L949.149 336.275L949.528 337.2ZM935.128 383.2L934.296 382.645L934.291 382.652L934.287 382.659L935.128 383.2ZM907.928 399C896.13 399 884.437 395.594 872.837 388.739L871.819 390.461C883.685 397.473 895.726 401 907.928 401V399ZM872.831 388.735C861.424 382.104 846.8 371.737 828.949 357.616L827.708 359.184C845.589 373.329 860.299 383.763 871.826 390.465L872.831 388.735ZM828.953 357.619C815.609 346.944 804.123 338.263 794.499 331.579L793.358 333.221C802.933 339.871 814.381 348.523 827.703 359.181L828.953 357.619ZM794.494 331.575C785.097 325.132 774.766 319.632 763.503 315.073L762.753 316.927C773.89 321.435 784.093 326.868 793.363 333.225L794.494 331.575ZM763.511 315.076C752.46 310.494 741.13 308.2 729.528 308.2V310.2C740.859 310.2 751.929 312.439 762.745 316.924L763.511 315.076ZM729.528 308.2C725.515 308.2 722.4 308.333 720.204 308.608L720.452 310.592C722.523 310.333 725.541 310.2 729.528 310.2V308.2ZM721.306 309.81L780.906 32.6102L778.95 32.1898L719.35 309.39L721.306 309.81ZM779.554 31.4725C761.515 38.7422 747.481 49.9331 737.494 65.0487L739.162 66.1512C748.909 51.4002 762.608 40.4578 780.302 33.3275L779.554 31.4725ZM737.491 65.0523C727.764 79.9141 722.928 98.1147 722.928 119.6H724.928C724.928 98.4186 729.693 80.6192 739.165 66.1476L737.491 65.0523ZM722.928 119.6C722.928 129.476 723.854 136.606 725.822 140.823L727.634 139.977C725.869 136.194 724.928 129.458 724.928 119.6H722.928ZM725.834 140.847C726.764 142.709 727.455 144.157 727.912 145.201C728.141 145.724 728.305 146.131 728.409 146.43C728.531 146.777 728.528 146.859 728.528 146.8H730.528C730.528 146.474 730.409 146.089 730.297 145.77C730.168 145.402 729.982 144.943 729.744 144.399C729.267 143.309 728.559 141.825 727.623 139.953L725.834 140.847ZM729.528 145.8C715.238 145.8 704.706 142.885 697.76 137.225L696.496 138.775C703.95 144.848 715.018 147.8 729.528 147.8V145.8ZM697.791 137.251C691.16 131.386 687.728 121.724 687.728 108H685.728C685.728 122.009 689.229 132.348 696.466 138.749L697.791 137.251ZM687.728 108C687.728 91.2278 694.535 74.9185 708.284 59.0549L706.772 57.7451C692.788 73.8815 685.728 90.6388 685.728 108H687.728ZM708.283 59.0559C722.311 42.91 740.189 29.9255 761.939 20.1115L761.117 18.2885C739.134 28.2078 721.012 41.3566 706.773 57.7441L708.283 59.0559ZM761.949 20.1073C783.697 10.0287 805.421 5 827.128 5V3C805.102 3 783.093 8.10459 761.108 18.2927L761.949 20.1073ZM827.128 5C830.823 5 836.126 5.26431 843.051 5.79704L843.205 3.80293C836.264 3.269 830.9 3 827.128 3V5ZM842.15 4.59027L780.55 291.79L782.506 292.21L844.106 5.0097L842.15 4.59027ZM781.286 292.97C788.69 294.821 796.234 297.468 803.919 300.913L804.737 299.087C796.955 295.599 789.3 292.912 781.771 291.03L781.286 292.97ZM803.905 300.906C811.879 304.627 821.459 309.55 832.648 315.677L833.608 313.923C822.397 307.783 812.777 302.839 804.751 299.094L803.905 300.906ZM832.654 315.68C850.007 325.025 864.846 332.111 877.164 336.931L877.893 335.069C865.677 330.289 850.916 323.242 833.602 313.92L832.654 315.68ZM877.146 336.924C889.535 342.041 902.464 344.6 915.928 344.6V342.6C902.725 342.6 890.055 340.092 877.91 335.076L877.146 336.924ZM915.928 344.6C928.049 344.6 939.379 342.445 949.908 338.125L949.149 336.275C938.877 340.489 927.807 342.6 915.928 342.6V344.6ZM948.534 337.091C946.411 356.466 941.643 371.626 934.296 382.645L935.96 383.755C943.547 372.374 948.379 356.868 950.522 337.309L948.534 337.091ZM934.287 382.659C927.225 393.645 918.444 399 907.928 399V401C919.279 401 928.631 395.155 935.969 383.741L934.287 382.659ZM931.491 28.4L932.469 28.6088L932.861 26.7695L931.117 27.4725L931.491 28.4ZM889.891 61.6L889.056 61.0487L889.054 61.0523L889.891 61.6ZM878.291 136.4L877.384 136.823L877.39 136.835L877.396 136.847L878.291 136.4ZM881.091 142.8V143.8H882.091V142.8H881.091ZM848.691 134L848.028 134.749L848.043 134.762L848.059 134.775L848.691 134ZM859.091 54.4L858.336 53.7441L858.335 53.7451L859.091 54.4ZM913.091 15.2L913.502 16.1115L913.511 16.1073L913.091 15.2ZM994.691 0.79999L995.669 1.00791L995.906 -0.109451L994.767 -0.197065L994.691 0.79999ZM931.091 300V301H931.9L932.069 300.208L931.091 300ZM873.491 300L872.513 299.791L872.255 301H873.491V300ZM931.117 27.4725C913.077 34.7422 899.043 45.9331 889.056 61.0487L890.725 62.1513C900.471 47.4002 914.171 36.4578 931.864 29.3275L931.117 27.4725ZM889.054 61.0523C879.326 75.9141 874.491 94.1147 874.491 115.6H876.491C876.491 94.4186 881.255 76.6192 890.727 62.1477L889.054 61.0523ZM874.491 115.6C874.491 125.476 875.417 132.606 877.384 136.823L879.197 135.977C877.431 132.194 876.491 125.458 876.491 115.6H874.491ZM877.396 136.847C878.327 138.709 879.018 140.157 879.474 141.201C879.703 141.724 879.867 142.131 879.972 142.43C880.093 142.777 880.091 142.859 880.091 142.8H882.091C882.091 142.474 881.971 142.089 881.859 141.77C881.731 141.402 881.545 140.943 881.307 140.399C880.83 139.309 880.121 137.825 879.185 135.953L877.396 136.847ZM881.091 141.8C866.801 141.8 856.269 138.885 849.322 133.225L848.059 134.775C855.512 140.848 866.581 143.8 881.091 143.8V141.8ZM849.353 133.251C842.723 127.386 839.291 117.724 839.291 104H837.291C837.291 118.009 840.792 128.348 848.028 134.749L849.353 133.251ZM839.291 104C839.291 87.2278 846.098 70.9185 859.846 55.0549L858.335 53.7451C844.35 69.8815 837.291 86.6388 837.291 104H839.291ZM859.845 55.0559C873.874 38.91 891.752 25.9255 913.502 16.1115L912.679 14.2885C890.696 24.2078 872.574 37.3567 858.336 53.7441L859.845 55.0559ZM913.511 16.1073C935.26 6.02872 956.983 0.999976 978.691 0.999976V-1.00002C956.664 -1.00002 934.655 4.10458 912.67 14.2927L913.511 16.1073ZM978.691 0.999976C982.385 0.999976 987.688 1.2643 994.614 1.79704L994.767 -0.197065C987.826 -0.731007 982.463 -1.00002 978.691 -1.00002V0.999976ZM993.712 0.592068L930.112 299.792L932.069 300.208L995.669 1.00791L993.712 0.592068ZM931.091 299H873.491V301H931.091V299ZM874.469 300.209L932.469 28.6088L930.513 28.1912L872.513 299.791L874.469 300.209ZM1073.09 345.6V346.6H1075.14L1073.88 344.986L1073.09 345.6ZM1047.09 343.2L1047.3 342.222L1047.3 342.222L1047.09 343.2ZM1027.49 331.6L1026.74 332.256L1026.74 332.265L1026.75 332.274L1027.49 331.6ZM1035.49 231.2L1034.55 230.859L1034.55 230.866L1035.49 231.2ZM1078.29 140.4L1079.16 140.901L1080.09 139.29L1078.23 139.402L1078.29 140.4ZM1046.69 146.4L1047.07 147.324L1047.07 147.324L1046.69 146.4ZM1031.49 161.2L1030.55 160.861L1030.07 162.2H1031.49V161.2ZM1034.69 165.2L1033.76 165.571L1033.78 165.61L1033.8 165.647L1034.69 165.2ZM1030.29 185.2L1030.82 186.048L1030.84 186.036L1030.86 186.024L1030.29 185.2ZM996.291 183.2L996.952 182.45L996.952 182.45L996.291 183.2ZM999.891 141.2L999.171 140.506L999.164 140.513L999.158 140.52L999.891 141.2ZM1029.49 123.6L1029.81 124.547L1029.82 124.544L1029.83 124.54L1029.49 123.6ZM1091.89 118L1091.79 118.995L1092.41 119.055L1092.74 118.533L1091.89 118ZM1161.09 33.2L1161.76 33.9429L1161.76 33.9425L1161.09 33.2ZM1262.69 5.59998L1263.67 5.8086L1263.84 5.02034L1263.1 4.6886L1262.69 5.59998ZM1199.89 300V301H1200.7L1200.87 300.209L1199.89 300ZM1142.29 300L1141.31 299.792L1141.06 301H1142.29V300ZM1173.09 154.8L1174.07 155.008L1174.23 154.225L1173.51 153.891L1173.09 154.8ZM1145.89 144.8L1145.64 145.768L1145.64 145.768L1145.89 144.8ZM1119.49 140.4L1119.58 139.404L1118.88 139.344L1118.58 139.98L1119.49 140.4ZM1081.89 241.2L1080.93 240.924L1080.93 240.929L1081.89 241.2ZM1199.89 28.4L1200.87 28.6085L1201.32 26.5026L1199.42 27.5182L1199.89 28.4ZM1163.89 62.8L1163.09 62.202L1163.09 62.2041L1163.89 62.8ZM1127.89 123.2L1126.99 122.757L1126.41 123.931L1127.7 124.182L1127.89 123.2ZM1176.69 137.2L1176.3 138.122L1177.42 138.59L1177.67 137.409L1176.69 137.2ZM1073.09 344.6C1063.28 344.6 1054.68 343.804 1047.3 342.222L1046.88 344.178C1054.43 345.796 1063.17 346.6 1073.09 346.6V344.6ZM1047.3 342.222C1040.06 340.67 1033.7 336.919 1028.23 330.926L1026.75 332.274C1032.48 338.547 1039.19 342.53 1046.88 344.178L1047.3 342.222ZM1028.25 330.944C1023.14 325.072 1020.49 315.89 1020.49 303.2H1018.49C1018.49 316.11 1021.18 325.861 1026.74 332.256L1028.25 330.944ZM1020.49 303.2C1020.49 285.503 1025.78 261.631 1036.43 231.534L1034.55 230.866C1023.87 261.036 1018.49 285.163 1018.49 303.2H1020.49ZM1036.43 231.541C1047.34 201.468 1061.58 171.255 1079.16 140.901L1077.43 139.899C1059.8 170.345 1045.51 200.665 1034.55 230.859L1036.43 231.541ZM1078.23 139.402C1064.84 140.205 1054.19 142.216 1046.31 145.476L1047.07 147.324C1054.66 144.184 1065.07 142.195 1078.35 141.398L1078.23 139.402ZM1046.31 145.476C1038.37 148.762 1033.06 153.881 1030.55 160.861L1032.43 161.539C1034.72 155.185 1039.55 150.438 1047.07 147.324L1046.31 145.476ZM1031.49 162.2C1031.58 162.2 1031.85 162.253 1032.31 162.825C1032.75 163.38 1033.24 164.276 1033.76 165.571L1035.62 164.829C1035.07 163.457 1034.49 162.353 1033.87 161.575C1033.26 160.814 1032.47 160.2 1031.49 160.2V162.2ZM1033.8 165.647C1035.06 168.177 1035.69 170.825 1035.69 173.6H1037.69C1037.69 170.509 1036.99 167.556 1035.59 164.753L1033.8 165.647ZM1035.69 173.6C1035.69 178.041 1033.74 181.612 1029.72 184.376L1030.86 186.024C1035.37 182.921 1037.69 178.759 1037.69 173.6H1035.69ZM1029.76 184.352C1025.69 186.896 1020.55 188.2 1014.29 188.2V190.2C1020.83 190.2 1026.36 188.838 1030.82 186.048L1029.76 184.352ZM1014.29 188.2C1007.01 188.2 1001.26 186.253 996.952 182.45L995.629 183.95C1000.39 188.147 1006.64 190.2 1014.29 190.2V188.2ZM996.952 182.45C992.683 178.683 990.491 173.253 990.491 166H988.491C988.491 173.681 990.831 179.717 995.629 183.95L996.952 182.45ZM990.491 166C990.491 157.218 993.839 149.187 1000.62 141.88L999.158 140.52C992.076 148.146 988.491 156.649 988.491 166H990.491ZM1000.61 141.894C1007.67 134.569 1017.39 128.776 1029.81 124.547L1029.17 122.653C1016.52 126.958 1006.51 132.897 999.171 140.506L1000.61 141.894ZM1029.83 124.54C1042.24 120.052 1055.99 117.8 1071.09 117.8V115.8C1055.79 115.8 1041.81 118.082 1029.15 122.66L1029.83 124.54ZM1071.09 117.8C1076.65 117.8 1083.55 118.197 1091.79 118.995L1091.99 117.005C1083.7 116.203 1076.73 115.8 1071.09 115.8V117.8ZM1092.74 118.533C1114.57 83.9256 1137.58 55.7349 1161.76 33.9429L1160.42 32.4571C1136.07 54.3984 1112.95 82.741 1091.04 117.466L1092.74 118.533ZM1161.76 33.9425C1186.2 11.8952 1209.3 0.999976 1231.09 0.999976V-1.00002C1208.61 -1.00002 1185.05 10.2381 1160.42 32.4575L1161.76 33.9425ZM1231.09 0.999976C1243.8 0.999976 1254.18 2.85527 1262.28 6.51135L1263.1 4.6886C1254.66 0.878012 1243.98 -1.00002 1231.09 -1.00002V0.999976ZM1261.71 5.39135L1198.91 299.791L1200.87 300.209L1263.67 5.8086L1261.71 5.39135ZM1199.89 299H1142.29V301H1199.89V299ZM1143.27 300.208L1174.07 155.008L1172.11 154.592L1141.31 299.792L1143.27 300.208ZM1173.51 153.891C1163.6 149.34 1154.48 145.983 1146.14 143.832L1145.64 145.768C1153.84 147.883 1162.85 151.194 1172.67 155.709L1173.51 153.891ZM1146.14 143.832C1137.81 141.683 1128.96 140.208 1119.58 139.404L1119.41 141.396C1128.69 142.192 1137.43 143.65 1145.64 145.768L1146.14 143.832ZM1118.58 139.98C1103.36 172.826 1090.81 206.474 1080.93 240.924L1082.85 241.476C1092.7 207.126 1105.22 173.574 1120.4 140.82L1118.58 139.98ZM1080.93 240.929C1071.32 275.097 1066.49 302.532 1066.49 323.2H1068.49C1068.49 302.801 1073.26 275.57 1082.85 241.471L1080.93 240.929ZM1066.49 323.2C1066.49 333.42 1068.37 341.155 1072.3 346.214L1073.88 344.986C1070.35 340.445 1068.49 333.246 1068.49 323.2H1066.49ZM1199.42 27.5182C1187.77 33.7505 1175.66 45.3481 1163.09 62.202L1164.69 63.3979C1177.19 46.6518 1189.08 35.3162 1200.36 29.2818L1199.42 27.5182ZM1163.09 62.2041C1150.78 78.7968 1138.75 98.9842 1126.99 122.757L1128.79 123.643C1140.5 99.9491 1152.47 79.8698 1164.69 63.3958L1163.09 62.2041ZM1127.7 124.182C1146.85 127.906 1163.05 132.556 1176.3 138.122L1177.08 136.278C1163.66 130.644 1147.33 125.961 1128.08 122.218L1127.7 124.182ZM1177.67 137.409L1200.87 28.6085L1198.91 28.1914L1175.71 136.991L1177.67 137.409ZM1381.48 25.2L1382.42 25.5468L1383.14 23.6022L1381.17 24.2501L1381.48 25.2ZM1334.28 58.4L1333.47 57.8135L1333.47 57.8161L1334.28 58.4ZM1320.68 136L1321.57 135.553L1321.57 135.553L1320.68 136ZM1323.48 142.8V143.8H1324.48V142.8H1323.48ZM1299.48 56.8L1298.68 56.1939L1298.68 56.1959L1299.48 56.8ZM1348.28 16L1348.74 16.8847L1348.75 16.8823L1348.28 16ZM1438.28 5.59998L1439.28 5.64358L1439.31 4.90766L1438.62 4.65878L1438.28 5.59998ZM1429.08 216.4L1428.08 216.356L1430 216.785L1429.08 216.4ZM1517.08 5.59998V4.59998H1516.41L1516.16 5.21474L1517.08 5.59998ZM1574.68 5.59998L1575.67 5.74121L1575.83 4.59998H1574.68V5.59998ZM1532.68 300V301H1533.55L1533.67 300.141L1532.68 300ZM1475.08 300L1474.09 299.859L1473.93 301H1475.08V300ZM1500.68 120.4L1501.67 120.541L1499.76 120.014L1500.68 120.4ZM1425.48 300V301H1426.14L1426.4 300.386L1425.48 300ZM1370.68 300L1369.68 299.956L1369.63 301H1370.68V300ZM1378.68 119.6L1379.68 119.644L1377.74 119.253L1378.68 119.6ZM1311.88 300V301H1312.57L1312.82 300.347L1311.88 300ZM1279.88 300L1278.94 299.653L1278.44 301H1279.88V300ZM1381.17 24.2501C1360.72 30.9744 1344.81 42.1565 1333.47 57.8135L1335.09 58.9865C1346.15 43.7101 1361.7 32.7589 1381.79 26.1499L1381.17 24.2501ZM1333.47 57.8161C1322.39 73.2194 1316.88 92.3688 1316.88 115.2H1318.88C1318.88 92.6978 1324.3 73.9806 1335.09 58.9839L1333.47 57.8161ZM1316.88 115.2C1316.88 120.293 1317.11 124.608 1317.59 128.133C1318.06 131.646 1318.78 134.438 1319.78 136.447L1321.57 135.553C1320.71 133.829 1320.03 131.287 1319.57 127.867C1319.11 124.459 1318.88 120.24 1318.88 115.2H1316.88ZM1319.78 136.447C1320.71 138.305 1321.4 139.78 1321.85 140.881C1322.08 141.432 1322.24 141.875 1322.35 142.216C1322.46 142.58 1322.48 142.754 1322.48 142.8H1324.48C1324.48 142.446 1324.38 142.037 1324.26 141.634C1324.13 141.209 1323.94 140.702 1323.7 140.119C1323.22 138.953 1322.51 137.428 1321.57 135.553L1319.78 136.447ZM1323.48 141.8C1309.33 141.8 1298.9 138.788 1292.03 132.938C1285.18 127.114 1281.68 118.333 1281.68 106.4H1279.68C1279.68 118.734 1283.31 128.152 1290.73 134.462C1298.12 140.745 1309.09 143.8 1323.48 143.8V141.8ZM1281.68 106.4C1281.68 90.1352 1287.84 73.8086 1300.28 57.4041L1298.68 56.1959C1286.05 72.8581 1279.68 89.5981 1279.68 106.4H1281.68ZM1300.27 57.406C1312.98 40.7282 1329.13 27.2207 1348.74 16.8846L1347.81 15.1153C1327.96 25.5793 1311.58 39.2718 1298.68 56.1939L1300.27 57.406ZM1348.75 16.8823C1368.63 6.28134 1388.33 0.999976 1407.88 0.999976V-1.00002C1387.96 -1.00002 1367.93 4.38529 1347.81 15.1176L1348.75 16.8823ZM1407.88 0.999976C1417.62 0.999976 1427.64 2.84212 1437.94 6.54117L1438.62 4.65878C1428.12 0.891166 1417.87 -1.00002 1407.88 -1.00002V0.999976ZM1437.28 5.55637L1428.08 216.356L1430.08 216.444L1439.28 5.64358L1437.28 5.55637ZM1430 216.785L1518 5.98521L1516.16 5.21474L1428.16 216.015L1430 216.785ZM1517.08 6.59998H1574.68V4.59998H1517.08V6.59998ZM1573.69 5.45874L1531.69 299.859L1533.67 300.141L1575.67 5.74121L1573.69 5.45874ZM1532.68 299H1475.08V301H1532.68V299ZM1476.07 300.141L1501.67 120.541L1499.69 120.259L1474.09 299.859L1476.07 300.141ZM1499.76 120.014L1424.56 299.614L1426.4 300.386L1501.6 120.786L1499.76 120.014ZM1425.48 299H1370.68V301H1425.48V299ZM1371.68 300.044L1379.68 119.644L1377.68 119.556L1369.68 299.956L1371.68 300.044ZM1377.74 119.253L1310.94 299.653L1312.82 300.347L1379.62 119.947L1377.74 119.253ZM1311.88 299H1279.88V301H1311.88V299ZM1280.82 300.347L1382.42 25.5468L1380.54 24.8532L1278.94 299.653L1280.82 300.347ZM175.2 838.4L175.762 837.573L175.751 837.565L175.739 837.558L175.2 838.4ZM160 822L159.106 822.447L159.109 822.454L159.113 822.461L160 822ZM150 796.8L150.949 796.484L150.639 795.554L149.703 795.845L150 796.8ZM60 783.2L59.2855 783.9L59.2929 783.907L60 783.2ZM54 642L54.9609 642.277L54 642ZM91.2 566L90.4133 565.383L90.4085 565.389L91.2 566ZM170.4 537.6L170.909 538.461L172.732 537.384L170.742 536.66L170.4 537.6ZM136.4 580.4L135.508 579.948L135.503 579.957L136.4 580.4ZM110.4 652.8L109.43 652.557L109.43 652.557L110.4 652.8ZM101.2 740.8L100.23 741.043L100.472 742.013L101.443 741.77L101.2 740.8ZM158 748L157.389 748.792L158.18 749.402L158.791 748.611L158 748ZM192.8 676.4L193.753 676.704L193.754 676.701L192.8 676.4ZM202.8 548.8L201.833 549.054L201.837 549.07L201.841 549.085L202.8 548.8ZM187.6 526L188.162 525.173L188.162 525.172L187.6 526ZM98.8 531.2L99.2252 532.105L99.2363 532.1L98.8 531.2ZM56.4 567.2L55.5723 566.639L55.5702 566.642L56.4 567.2ZM42.8 637.2L41.8667 637.559L41.8716 637.572L41.8769 637.585L42.8 637.2ZM44.8 642.8V643.8H45.8V642.8H44.8ZM14.4 634.8L13.7753 635.581L13.7827 635.587L13.7903 635.593L14.4 634.8ZM26.8 556.4L26.0584 555.729L26.0526 555.736L26.8 556.4ZM86.8 515.6L86.4168 514.676L86.4133 514.678L86.8 515.6ZM238 527.2L237.228 527.836L238 527.2ZM252 666L252.97 666.243L252.971 666.24L252 666ZM226.4 730L227.27 730.492L227.27 730.492L226.4 730ZM184 779.2L183.402 778.398L182.642 778.966L183.168 779.755L184 779.2ZM205.6 803.2L206.2 802.4L206.2 802.4L205.6 803.2ZM242.8 810.8L243.732 811.162L244.338 809.6L242.676 809.808L242.8 810.8ZM225.2 837.6L224.616 836.788L224.597 836.802L224.579 836.816L225.2 837.6ZM138.8 765.6L139.367 766.424L140.134 765.896L139.662 765.093L138.8 765.6ZM104.4 753.6L104.106 752.644L103.12 752.947L103.454 753.923L104.4 753.6ZM201.6 844.2C190.797 844.2 182.214 841.96 175.762 837.573L174.638 839.227C181.52 843.907 190.536 846.2 201.6 846.2V844.2ZM175.739 837.558C169.212 833.38 164.269 828.042 160.887 821.539L159.113 822.461C162.665 829.292 167.855 834.887 174.661 839.242L175.739 837.558ZM160.894 821.553C157.724 815.211 154.407 806.86 150.949 796.484L149.051 797.116C152.526 807.54 155.876 815.989 159.106 822.447L160.894 821.553ZM149.703 795.845C137.801 799.548 125.501 801.4 112.8 801.4V803.4C125.699 803.4 138.199 801.519 150.297 797.755L149.703 795.845ZM112.8 801.4C90.5985 801.4 73.2771 795.063 60.7071 782.493L59.2929 783.907C72.3229 796.937 90.2015 803.4 112.8 803.4V801.4ZM60.7145 782.5C48.4443 769.969 42.2 749.881 42.2 722H40.2C40.2 750.119 46.4891 770.831 59.2855 783.9L60.7145 782.5ZM42.2 722C42.2 698.383 46.4462 671.812 54.9609 642.277L53.0391 641.723C44.4871 671.388 40.2 698.15 40.2 722H42.2ZM54.9609 642.277C63.4647 612.779 75.813 587.564 91.9915 566.611L90.4085 565.389C74.0537 586.57 61.6019 612.021 53.0391 641.723L54.9609 642.277ZM91.9867 566.617C108.372 545.74 127.568 535.4 149.6 535.4V533.4C126.832 533.4 107.095 544.127 90.4133 565.383L91.9867 566.617ZM149.6 535.4C157.515 535.4 164.327 536.456 170.058 538.54L170.742 536.66C164.74 534.478 157.685 533.4 149.6 533.4V535.4ZM169.891 536.739C157.91 543.819 146.469 558.293 135.508 579.948L137.292 580.852C148.198 559.307 159.423 545.248 170.909 538.461L169.891 536.739ZM135.503 579.957C124.801 601.629 116.111 625.831 109.43 652.557L111.37 653.043C118.022 626.436 126.666 602.371 137.297 580.843L135.503 579.957ZM109.43 652.557C102.75 679.279 99.4 702.963 99.4 723.6H101.4C101.4 703.171 104.717 679.655 111.37 653.043L109.43 652.557ZM99.4 723.6V730.8H101.4V723.6H99.4ZM99.4 730.8C99.4 735.348 99.6652 738.784 100.23 741.043L102.17 740.557C101.668 738.549 101.4 735.319 101.4 730.8H99.4ZM101.443 741.77C110.994 739.382 119.175 738.2 126 738.2V736.2C118.958 736.2 110.606 737.418 100.957 739.83L101.443 741.77ZM126 738.2C137.783 738.2 148.234 741.729 157.389 748.792L158.611 747.208C149.099 739.871 138.217 736.2 126 736.2V738.2ZM158.791 748.611C172.486 730.889 184.131 706.905 193.753 676.704L191.847 676.096C182.269 706.162 170.714 729.911 157.209 747.389L158.791 748.611ZM193.754 676.701C203.38 646.216 208.2 616.781 208.2 588.4H206.2C206.2 616.552 201.42 645.784 191.846 676.099L193.754 676.701ZM208.2 588.4C208.2 571.821 206.731 558.513 203.759 548.515L201.841 549.085C204.736 558.821 206.2 571.912 206.2 588.4H208.2ZM203.767 548.545C201.049 538.218 195.86 530.396 188.162 525.173L187.039 526.827C194.273 531.737 199.217 539.115 201.833 549.054L203.767 548.545ZM188.162 525.172C180.465 519.95 169.705 517.4 156 517.4V519.4C169.495 519.4 179.802 521.917 187.039 526.827L188.162 525.172ZM156 517.4C135.323 517.4 116.106 521.698 98.3637 530.3L99.2363 532.1C116.694 523.636 135.61 519.4 156 519.4V517.4ZM98.3749 530.295C80.6161 538.636 66.3422 550.753 55.5723 566.639L57.2277 567.761C67.7911 552.18 81.7839 540.297 99.2251 532.105L98.3749 530.295ZM55.5702 566.642C45.048 582.29 39.8 600.489 39.8 621.2H41.8C41.8 600.844 46.952 583.043 57.2298 567.758L55.5702 566.642ZM39.8 621.2C39.8 628.43 40.465 633.915 41.8667 637.559L43.7333 636.841C42.4683 633.552 41.8 628.37 41.8 621.2H39.8ZM41.8769 637.585C42.5411 639.179 43.0335 640.427 43.3583 641.336C43.521 641.792 43.6372 642.15 43.7115 642.418C43.7942 642.715 43.8 642.816 43.8 642.8H45.8C45.8 642.518 45.7225 642.185 45.6385 641.882C45.5462 641.55 45.4124 641.141 45.2417 640.664C44.8999 639.706 44.3923 638.421 43.7231 636.815L41.8769 637.585ZM44.8 641.8C31.5777 641.8 21.6977 639.152 15.0097 634.007L13.7903 635.593C20.9689 641.115 31.3557 643.8 44.8 643.8V641.8ZM15.0247 634.019C8.67565 628.94 5.4 620.75 5.4 609.2H3.4C3.4 621.117 6.79101 629.993 13.7753 635.581L15.0247 634.019ZM5.4 609.2C5.4 591.096 12.7391 573.724 27.5474 557.064L26.0526 555.736C10.9943 572.676 3.4 590.504 3.4 609.2H5.4ZM27.5415 557.071C42.6264 540.398 62.497 526.876 87.1867 516.522L86.4133 514.678C61.503 525.124 41.3736 538.802 26.0585 555.729L27.5415 557.071ZM87.1832 516.524C112.127 506.175 138.263 501 165.6 501V499C138.003 499 111.606 504.225 86.4168 514.676L87.1832 516.524ZM165.6 501C198.765 501 222.554 510.018 237.228 527.836L238.772 526.564C223.579 508.116 199.102 499 165.6 499V501ZM237.228 527.836C251.968 545.735 259.4 570.548 259.4 602.4H261.4C261.4 570.252 253.898 544.932 238.772 526.564L237.228 527.836ZM259.4 602.4C259.4 622.039 256.613 643.158 251.029 665.76L252.971 666.24C258.587 643.509 261.4 622.227 261.4 602.4H259.4ZM251.03 665.757C245.452 688.069 236.952 709.319 225.53 729.508L227.27 730.492C238.781 710.148 247.348 688.731 252.97 666.243L251.03 665.757ZM225.53 729.508C214.124 749.667 200.079 765.957 183.402 778.398L184.598 780.002C201.521 767.376 215.743 750.866 227.27 730.492L225.53 729.508ZM183.168 779.755C190.144 790.219 197.418 798.313 205 804L206.2 802.4C198.849 796.887 191.722 788.981 184.832 778.645L183.168 779.755ZM205 804C212.676 809.757 222.367 812.6 234 812.6V810.6C222.699 810.6 213.457 807.843 206.2 802.4L205 804ZM234 812.6C235.671 812.6 238.663 812.325 242.924 811.792L242.676 809.808C238.404 810.342 235.529 810.6 234 810.6V812.6ZM241.868 810.438C236.827 823.438 231.049 832.156 224.616 836.788L225.784 838.412C232.684 833.444 238.64 824.296 243.732 811.162L241.868 810.438ZM224.579 836.816C218.381 841.723 210.742 844.2 201.6 844.2V846.2C211.125 846.2 219.219 843.61 225.821 838.384L224.579 836.816ZM123.6 771C129.641 771 134.912 769.487 139.367 766.424L138.233 764.776C134.155 767.58 129.292 769 123.6 769V771ZM139.662 765.093C134.163 755.745 126.249 751 116 751V753C125.485 753 132.77 757.321 137.938 766.107L139.662 765.093ZM116 751C111.651 751 107.683 751.544 104.106 752.644L104.694 754.556C108.05 753.523 111.816 753 116 753V751ZM103.454 753.923C105.358 759.499 107.973 763.775 111.351 766.66C114.746 769.561 118.848 771 123.6 771V769C119.285 769 115.654 767.706 112.649 765.14C109.628 762.558 107.176 758.634 105.346 753.277L103.454 753.923ZM359.616 528.4L360.594 528.609L360.986 526.769L359.242 527.472L359.616 528.4ZM318.016 561.6L317.181 561.049L317.179 561.052L318.016 561.6ZM306.416 636.4L305.509 636.823L305.515 636.835L305.521 636.847L306.416 636.4ZM309.216 642.8V643.8H310.216V642.8H309.216ZM276.816 634L276.153 634.749L276.168 634.762L276.184 634.775L276.816 634ZM287.216 554.4L286.461 553.744L286.46 553.745L287.216 554.4ZM341.216 515.2L341.627 516.112L341.636 516.107L341.216 515.2ZM422.816 500.8L423.794 501.008L424.031 499.891L422.892 499.803L422.816 500.8ZM359.216 800V801H360.025L360.194 800.208L359.216 800ZM301.616 800L300.638 799.791L300.38 801H301.616V800ZM359.242 527.472C341.202 534.742 327.168 545.933 317.181 561.049L318.85 562.151C328.596 547.4 342.296 536.458 359.989 529.328L359.242 527.472ZM317.179 561.052C307.451 575.914 302.616 594.115 302.616 615.6H304.616C304.616 594.419 309.38 576.619 318.852 562.148L317.179 561.052ZM302.616 615.6C302.616 625.476 303.542 632.606 305.509 636.823L307.322 635.977C305.556 632.194 304.616 625.458 304.616 615.6H302.616ZM305.521 636.847C306.452 638.709 307.143 640.157 307.599 641.201C307.828 641.724 307.992 642.131 308.097 642.43C308.218 642.777 308.216 642.859 308.216 642.8H310.216C310.216 642.474 310.096 642.089 309.984 641.77C309.856 641.402 309.67 640.943 309.432 640.399C308.955 639.309 308.246 637.825 307.31 635.953L305.521 636.847ZM309.216 641.8C294.926 641.8 284.394 638.885 277.447 633.225L276.184 634.775C283.637 640.848 294.706 643.8 309.216 643.8V641.8ZM277.478 633.251C270.848 627.386 267.416 617.724 267.416 604H265.416C265.416 618.009 268.917 628.348 276.153 634.749L277.478 633.251ZM267.416 604C267.416 587.228 274.223 570.918 287.971 555.055L286.46 553.745C272.475 569.882 265.416 586.639 265.416 604H267.416ZM287.97 555.056C301.999 538.91 319.877 525.926 341.627 516.112L340.804 514.288C318.821 524.208 300.699 537.357 286.461 553.744L287.97 555.056ZM341.636 516.107C363.385 506.029 385.108 501 406.816 501V499C384.789 499 362.78 504.105 340.795 514.293L341.636 516.107ZM406.816 501C410.51 501 415.813 501.264 422.739 501.797L422.892 499.803C415.951 499.269 410.588 499 406.816 499V501ZM421.837 500.592L358.237 799.792L360.194 800.208L423.794 501.008L421.837 500.592ZM359.216 799H301.616V801H359.216V799ZM302.594 800.209L360.594 528.609L358.638 528.191L300.638 799.791L302.594 800.209ZM501.216 845.6V846.6H503.26L502.005 844.986L501.216 845.6ZM475.216 843.2L475.425 842.222L475.425 842.222L475.216 843.2ZM455.616 831.6L454.861 832.256L454.869 832.265L454.877 832.274L455.616 831.6ZM463.616 731.2L462.676 730.859L462.673 730.866L463.616 731.2ZM506.416 640.4L507.281 640.901L508.214 639.29L506.356 639.402L506.416 640.4ZM474.816 646.4L475.198 647.324L475.198 647.324L474.816 646.4ZM459.616 661.2L458.675 660.861L458.193 662.2H459.616V661.2ZM462.816 665.2L461.887 665.571L461.903 665.61L461.921 665.647L462.816 665.2ZM458.416 685.2L458.946 686.048L458.964 686.036L458.982 686.024L458.416 685.2ZM424.416 683.2L425.077 682.45L425.077 682.45L424.416 683.2ZM428.016 641.2L427.296 640.506L427.289 640.513L427.283 640.52L428.016 641.2ZM457.616 623.6L457.938 624.547L457.947 624.544L457.956 624.54L457.616 623.6ZM520.016 618L519.919 618.995L520.533 619.055L520.861 618.533L520.016 618ZM589.216 533.2L589.885 533.943L589.885 533.942L589.216 533.2ZM690.816 505.6L691.794 505.809L691.962 505.02L691.227 504.689L690.816 505.6ZM628.016 800V801H628.825L628.994 800.209L628.016 800ZM570.416 800L569.437 799.792L569.181 801H570.416V800ZM601.216 654.8L602.194 655.008L602.36 654.225L601.633 653.891L601.216 654.8ZM574.016 644.8L573.766 645.768L573.766 645.768L574.016 644.8ZM547.616 640.4L547.701 639.404L547.003 639.344L546.708 639.98L547.616 640.4ZM510.016 741.2L509.054 740.924L509.053 740.929L510.016 741.2ZM628.016 528.4L628.994 528.609L629.443 526.503L627.544 527.518L628.016 528.4ZM592.016 562.8L591.214 562.202L591.213 562.204L592.016 562.8ZM556.016 623.2L555.119 622.757L554.538 623.931L555.825 624.182L556.016 623.2ZM604.816 637.2L604.428 638.122L605.542 638.59L605.794 637.409L604.816 637.2ZM501.216 844.6C491.4 844.6 482.806 843.804 475.425 842.222L475.006 844.178C482.558 845.796 491.298 846.6 501.216 846.6V844.6ZM475.425 842.222C468.18 840.67 461.827 836.919 456.354 830.926L454.877 832.274C460.605 838.547 467.318 842.53 475.006 844.178L475.425 842.222ZM456.37 830.944C451.264 825.072 448.616 815.89 448.616 803.2H446.616C446.616 816.11 449.3 825.861 454.861 832.256L456.37 830.944ZM448.616 803.2C448.616 785.503 453.905 761.631 464.558 731.534L462.673 730.866C451.993 761.036 446.616 785.163 446.616 803.2H448.616ZM464.556 731.541C475.467 701.468 489.708 671.255 507.281 640.901L505.55 639.899C487.923 670.345 473.631 700.665 462.676 730.859L464.556 731.541ZM506.356 639.402C492.969 640.205 482.312 642.216 474.433 645.476L475.198 647.324C482.786 644.184 493.195 642.195 506.476 641.398L506.356 639.402ZM474.433 645.476C466.491 648.762 461.188 653.881 458.675 660.861L460.557 661.539C462.844 655.185 467.673 650.438 475.198 647.324L474.433 645.476ZM459.616 662.2C459.701 662.2 459.977 662.253 460.435 662.825C460.879 663.38 461.369 664.276 461.887 665.571L463.744 664.829C463.196 663.457 462.619 662.353 461.996 661.575C461.387 660.814 460.597 660.2 459.616 660.2V662.2ZM461.921 665.647C463.186 668.177 463.816 670.825 463.816 673.6H465.816C465.816 670.509 465.112 667.556 463.71 664.753L461.921 665.647ZM463.816 673.6C463.816 678.041 461.87 681.612 457.849 684.376L458.982 686.024C463.495 682.921 465.816 678.759 465.816 673.6H463.816ZM457.886 684.352C453.816 686.896 448.679 688.2 442.416 688.2V690.2C448.953 690.2 454.482 688.838 458.946 686.048L457.886 684.352ZM442.416 688.2C435.133 688.2 429.388 686.253 425.077 682.45L423.754 683.95C428.51 688.147 434.765 690.2 442.416 690.2V688.2ZM425.077 682.45C420.808 678.683 418.616 673.253 418.616 666H416.616C416.616 673.681 418.956 679.717 423.754 683.95L425.077 682.45ZM418.616 666C418.616 657.218 421.964 649.187 428.748 641.88L427.283 640.52C420.201 648.146 416.616 656.649 416.616 666H418.616ZM428.735 641.894C435.799 634.569 445.515 628.776 457.938 624.547L457.293 622.653C444.65 626.958 434.633 632.897 427.296 640.506L428.735 641.894ZM457.956 624.54C470.366 620.052 484.116 617.8 499.216 617.8V615.8C483.916 615.8 469.932 618.082 457.275 622.66L457.956 624.54ZM499.216 617.8C504.772 617.8 511.671 618.197 519.919 618.995L520.112 617.005C511.827 616.203 504.859 615.8 499.216 615.8V617.8ZM520.861 618.533C542.691 583.926 565.701 555.735 589.885 533.943L588.546 532.457C564.197 554.398 541.074 582.741 519.17 617.466L520.861 618.533ZM589.885 533.942C614.323 511.895 637.427 501 659.216 501V499C636.737 499 613.175 510.238 588.546 532.457L589.885 533.942ZM659.216 501C671.928 501 682.308 502.855 690.404 506.511L691.227 504.689C682.789 500.878 672.103 499 659.216 499V501ZM689.838 505.391L627.038 799.791L628.994 800.209L691.794 505.809L689.838 505.391ZM628.016 799H570.416V801H628.016V799ZM571.394 800.208L602.194 655.008L600.237 654.592L569.437 799.792L571.394 800.208ZM601.633 653.891C591.726 649.34 582.603 645.983 574.266 643.832L573.766 645.768C581.962 647.883 590.972 651.194 600.798 655.709L601.633 653.891ZM574.266 643.832C565.94 641.683 557.085 640.208 547.701 639.404L547.53 641.396C556.813 642.192 565.558 643.65 573.766 645.768L574.266 643.832ZM546.708 639.98C531.487 672.826 518.935 706.474 509.054 740.924L510.977 741.476C520.829 707.126 533.344 673.574 548.523 640.82L546.708 639.98ZM509.053 740.929C499.443 775.097 494.616 802.532 494.616 823.2H496.616C496.616 802.801 501.388 775.57 510.978 741.471L509.053 740.929ZM494.616 823.2C494.616 833.42 496.492 841.155 500.426 846.214L502.005 844.986C498.473 840.445 496.616 833.246 496.616 823.2H494.616ZM627.544 527.518C615.892 533.75 603.788 545.348 591.214 562.202L592.817 563.398C605.31 546.652 617.206 535.316 628.487 529.282L627.544 527.518ZM591.213 562.204C578.902 578.797 566.872 598.984 555.119 622.757L556.912 623.643C568.626 599.949 580.596 579.87 592.819 563.396L591.213 562.204ZM555.825 624.182C574.979 627.906 591.176 632.556 604.428 638.122L605.203 636.278C591.789 630.644 575.452 625.961 556.207 622.218L555.825 624.182ZM605.794 637.409L628.994 528.609L627.038 528.191L603.838 636.991L605.794 637.409ZM778.403 526L779.38 526.215L779.767 524.458L778.07 525.057L778.403 526ZM736.803 556.4L735.981 555.831L735.979 555.834L736.803 556.4ZM725.603 629.6L724.635 629.851L724.638 629.86L725.603 629.6ZM733.603 646.8V647.8H735.627L734.397 646.193L733.603 646.8ZM695.603 636.4L694.934 637.143L694.947 637.155L694.961 637.166L695.603 636.4ZM700.003 551.6L700.829 552.164L700.833 552.158L700.003 551.6ZM744.403 512.8L743.946 511.911L743.946 511.911L744.403 512.8ZM821.203 499.6L821.377 498.615L821.377 498.615L821.203 499.6ZM836.803 504L837.779 503.781L837.659 503.247L837.145 503.06L836.803 504ZM884.803 718L883.827 718.219L885.783 718.202L884.803 718ZM929.603 500.8V499.8H928.788L928.624 500.598L929.603 500.8ZM968.403 500.8L969.38 501.013L969.645 499.8H968.403V500.8ZM903.203 800V801H904.009L904.18 800.213L903.203 800ZM848.003 800L847.029 800.228L847.21 801H848.003V800ZM801.603 601.6L802.577 601.372L800.629 601.376L801.603 601.6ZM756.003 800V801H756.799L756.978 800.224L756.003 800ZM718.003 800L717.027 799.785L716.759 801H718.003V800ZM778.07 525.057C759.768 531.517 745.717 541.768 735.981 555.831L737.625 556.969C747.089 543.299 760.772 533.283 778.736 526.943L778.07 525.057ZM735.979 555.834C726.512 569.629 721.803 586.369 721.803 606H723.803C723.803 586.698 728.428 570.371 737.628 556.966L735.979 555.834ZM721.803 606C721.803 614.606 722.744 622.558 724.635 629.851L726.571 629.349C724.729 622.242 723.803 614.461 723.803 606H721.803ZM724.638 629.86C726.53 636.888 729.245 642.748 732.809 647.407L734.397 646.193C731.028 641.786 728.41 636.179 726.569 629.34L724.638 629.86ZM733.603 645.8C716.642 645.8 704.253 642.35 696.246 635.634L694.961 637.166C703.486 644.317 716.43 647.8 733.603 647.8V645.8ZM696.272 635.657C688.551 628.708 684.603 618.09 684.603 603.6H682.603C682.603 618.443 686.655 629.692 694.934 637.143L696.272 635.657ZM684.603 603.6C684.603 585.143 690.004 568.005 700.829 552.164L699.177 551.036C688.135 567.195 682.603 584.724 682.603 603.6H684.603ZM700.833 552.158C711.666 536.041 726.333 523.218 744.86 513.689L743.946 511.911C725.14 521.582 710.207 534.625 699.173 551.042L700.833 552.158ZM744.86 513.689C763.38 504.165 783.489 499.4 805.203 499.4V497.4C783.184 497.4 762.76 502.235 743.946 511.911L744.86 513.689ZM805.203 499.4C811.296 499.4 816.569 499.798 821.029 500.585L821.377 498.615C816.771 497.802 811.377 497.4 805.203 497.4V499.4ZM821.029 500.585C825.489 501.372 830.631 502.82 836.461 504.94L837.145 503.06C831.241 500.914 825.984 499.428 821.377 498.615L821.029 500.585ZM835.827 504.219L883.827 718.219L885.779 717.781L837.779 503.781L835.827 504.219ZM885.783 718.202L930.583 501.002L928.624 500.598L883.824 717.798L885.783 718.202ZM929.603 501.8H968.403V499.8H929.603V501.8ZM967.426 500.587L902.226 799.787L904.18 800.213L969.38 501.013L967.426 500.587ZM903.203 799H848.003V801H903.203V799ZM848.977 799.772L802.577 601.372L800.629 601.828L847.029 800.228L848.977 799.772ZM800.629 601.376L755.029 799.776L756.978 800.224L802.578 601.824L800.629 601.376ZM756.003 799H718.003V801H756.003V799ZM718.98 800.215L779.38 526.215L777.427 525.785L717.027 799.785L718.98 800.215Z" fill="black"/>
</svg>
